<svg width="670" height="731" viewBox="0 0 670 731" fill="none" xmlns="http://www.w3.org/2000/svg">
<g clip-path="url(#clip0_1_858)" filter="url(#filter0_b_1_858)">
<path d="M459.917 619.029C428.544 626.16 399.938 604.062 396.021 569.669L366.501 262.501C366.501 262.501 378.421 254.746 379.501 254.501L459 205.5C463.999 200.5 467.5 189.5 465 184.5C465.999 185 469.762 193.416 469.999 195.501L509.627 543.847C513.545 578.239 491.29 611.898 459.917 619.029Z" fill="#FFD01F" fill-opacity="0.4"/>
<path d="M410.293 134.356C420.488 128.148 433.975 131.692 440.417 142.272L462.193 178.035C468.637 188.618 464.2 203.295 454 209.5L167.906 383.312C161.012 387.506 152.267 387.365 145.229 382.946L105.726 358.149C91.5921 349.276 91.2421 328.625 105.083 320.198L410.293 134.356Z" fill="#FFD01F" fill-opacity="0.4"/>
<path d="M356.78 141.74C390.348 121.301 403.46 81.5753 386.066 53.0104C368.673 24.4456 327.362 17.8584 293.795 38.2975C260.227 58.7365 247.115 98.462 264.509 127.027C281.902 155.592 323.213 162.179 356.78 141.74Z" fill="#FFD01F" fill-opacity="0.4"/>
</g>
<defs>
<filter id="filter0_b_1_858" x="-140" y="-140" width="949.038" height="1010.48" filterUnits="userSpaceOnUse" color-interpolation-filters="sRGB">
<feFlood flood-opacity="0" result="BackgroundImageFix"/>
<feGaussianBlur in="BackgroundImageFix" stdDeviation="70"/>
<feComposite in2="SourceAlpha" operator="in" result="effect1_backgroundBlur_1_858"/>
<feBlend mode="normal" in="SourceGraphic" in2="effect1_backgroundBlur_1_858" result="shape"/>
</filter>
<clipPath id="clip0_1_858">
<rect width="417.247" height="601.18" fill="white" transform="translate(0 216.999) rotate(-31.3372)"/>
</clipPath>
</defs>
</svg>
