<svg width="1044" height="595" viewBox="0 0 1044 595" fill="none" xmlns="http://www.w3.org/2000/svg">
<g filter="url(#filter0_f_1_1043)">
<path d="M12 44C12 26.3269 26.3269 12 44 12H1000C1017.67 12 1032 26.3269 1032 44V551C1032 568.673 1017.67 583 1000 583H44C26.3269 583 12 568.673 12 551V44Z" fill="url(#paint0_radial_1_1043)" fill-opacity="0.6"/>
<path d="M44 13H1000C1017.12 13 1031 26.8792 1031 44V551C1031 568.121 1017.12 582 1000 582H44C26.8792 582 13 568.121 13 551V44C13 26.8792 26.8792 13 44 13Z" stroke="#FFD123" stroke-width="2" style="mix-blend-mode:overlay"/>
</g>
<defs>
<filter id="filter0_f_1_1043" x="0" y="0" width="1044" height="595" filterUnits="userSpaceOnUse" color-interpolation-filters="sRGB">
<feFlood flood-opacity="0" result="BackgroundImageFix"/>
<feBlend mode="normal" in="SourceGraphic" in2="BackgroundImageFix" result="shape"/>
<feGaussianBlur stdDeviation="6" result="effect1_foregroundBlur_1_1043"/>
</filter>
<radialGradient id="paint0_radial_1_1043" cx="0" cy="0" r="1" gradientUnits="userSpaceOnUse" gradientTransform="translate(18.3847 29.4238) rotate(28.6406) scale(1154.93 15836.8)">
<stop stop-color="white" stop-opacity="0.7"/>
<stop offset="1" stop-color="#FFFCFC" stop-opacity="0.1"/>
</radialGradient>
</defs>
</svg>
