<svg width="1108" height="575" viewBox="0 0 1108 575" fill="none" xmlns="http://www.w3.org/2000/svg">
<g filter="url(#filter0_f_1_1049)">
<path d="M12 44C12 26.3269 26.3269 12 44 12H1064C1081.67 12 1096 26.3269 1096 44V531C1096 548.673 1081.67 563 1064 563H44C26.3269 563 12 548.673 12 531V44Z" fill="url(#paint0_radial_1_1049)" fill-opacity="0.6"/>
<path d="M44 13H1064C1081.12 13 1095 26.8792 1095 44V531C1095 548.121 1081.12 562 1064 562H44C26.8792 562 13 548.121 13 531V44C13 26.8792 26.8792 13 44 13Z" stroke="#FFD123" stroke-width="2" style="mix-blend-mode:overlay"/>
</g>
<defs>
<filter id="filter0_f_1_1049" x="0" y="0" width="1108" height="575" filterUnits="userSpaceOnUse" color-interpolation-filters="sRGB">
<feFlood flood-opacity="0" result="BackgroundImageFix"/>
<feBlend mode="normal" in="SourceGraphic" in2="BackgroundImageFix" result="shape"/>
<feGaussianBlur stdDeviation="6" result="effect1_foregroundBlur_1_1049"/>
</filter>
<radialGradient id="paint0_radial_1_1049" cx="0" cy="0" r="1" gradientUnits="userSpaceOnUse" gradientTransform="translate(18.7853 28.8135) rotate(26.3765) scale(1202.39 15599.9)">
<stop stop-color="white" stop-opacity="0.7"/>
<stop offset="1" stop-color="#FFFCFC" stop-opacity="0.1"/>
</radialGradient>
</defs>
</svg>
