<svg width="1175" height="658" viewBox="0 0 1175 658" fill="none" xmlns="http://www.w3.org/2000/svg">
<g filter="url(#filter0_f_1_1055)">
<path d="M12 44C12 26.3269 26.3269 12 44 12H587.5H1131C1148.67 12 1163 26.3269 1163 44V614C1163 631.673 1148.67 646 1131 646H44C26.3269 646 12 631.673 12 614V44Z" fill="url(#paint0_radial_1_1055)" fill-opacity="0.6"/>
<path d="M1162 44V614C1162 631.121 1148.12 645 1131 645H44C26.8792 645 13 631.121 13 614V44C13 26.8792 26.8792 13 44 13H587.5H1131C1148.12 13 1162 26.8792 1162 44Z" stroke="#FFD123" stroke-width="2" style="mix-blend-mode:overlay"/>
</g>
<defs>
<filter id="filter0_f_1_1055" x="0" y="0" width="1175" height="658" filterUnits="userSpaceOnUse" color-interpolation-filters="sRGB">
<feFlood flood-opacity="0" result="BackgroundImageFix"/>
<feBlend mode="normal" in="SourceGraphic" in2="BackgroundImageFix" result="shape"/>
<feGaussianBlur stdDeviation="6" result="effect1_foregroundBlur_1_1055"/>
</filter>
<radialGradient id="paint0_radial_1_1055" cx="0" cy="0" r="1" gradientUnits="userSpaceOnUse" gradientTransform="translate(19.2047 31.3463) rotate(28.2526) scale(1298.48 17648.8)">
<stop stop-color="white" stop-opacity="0.7"/>
<stop offset="1" stop-color="#FFFCFC" stop-opacity="0.1"/>
</radialGradient>
</defs>
</svg>
