<svg width="1630" height="946" viewBox="0 0 1630 946" fill="none" xmlns="http://www.w3.org/2000/svg">
<g filter="url(#filter0_b_1_271)">
<path d="M0 43C0 19.2518 19.2518 0 43 0H1587C1610.75 0 1630 19.2518 1630 43V903C1630 926.748 1610.75 946 1587 946H43C19.2517 946 0 926.748 0 903V43Z" fill="url(#paint0_radial_1_271)" fill-opacity="0.51"/>
<path d="M43 1.5H1587C1609.92 1.5 1628.5 20.0802 1628.5 43V903C1628.5 925.92 1609.92 944.5 1587 944.5H43C20.0802 944.5 1.5 925.92 1.5 903V43C1.5 20.0802 20.0802 1.5 43 1.5Z" stroke="#A2A2A2" stroke-width="3"/>
</g>
<defs>
<filter id="filter0_b_1_271" x="-7.5" y="-7.5" width="1645" height="961" filterUnits="userSpaceOnUse" color-interpolation-filters="sRGB">
<feFlood flood-opacity="0" result="BackgroundImageFix"/>
<feGaussianBlur in="BackgroundImageFix" stdDeviation="3.75"/>
<feComposite in2="SourceAlpha" operator="in" result="effect1_backgroundBlur_1_271"/>
<feBlend mode="normal" in="SourceGraphic" in2="effect1_backgroundBlur_1_271" result="shape"/>
</filter>
<radialGradient id="paint0_radial_1_271" cx="0" cy="0" r="1" gradientUnits="userSpaceOnUse" gradientTransform="translate(-0.000470684 0.924365) rotate(29.1134) scale(1841.9 7298.21)">
<stop stop-color="#C1C1C1" stop-opacity="0.7"/>
<stop offset="1" stop-color="#EAEAEA" stop-opacity="0.3"/>
</radialGradient>
</defs>
</svg>
